# xmcd CD database file
#
# Track frame offsets:
#	170
#	21865
#	49762
#	76367
#	93805
#	113665
#	141130
#	166672
#	184687
#	190580
#	211530
#
# Disc length: 3022 seconds
#
# Revision: 0
# Processed by: cddbd v1.4PL0 Copyright (c) Steve Scherf et al.
# Submitted via: CDex 1.50beta9
#
DISCID=7b0bcc0b
DTITLE=Sea Horses - Listen
DYEAR=1990
DGENRE=New Age
TTITLE0=Asking Heaven and Heart
TTITLE1=Salute to the Sun
TTITLE2=Exaltations
TTITLE3=Angles of Incidence
TTITLE4=Pray
TTITLE5=Satori
TTITLE6=Kissing Flowers
TTITLE7=For Our Emotions
TTITLE8=Open Veins
TTITLE9=In Sufferance
TTITLE10=Confession
EXTD=YEAR: 1990
EXTT0=
EXTT1=
EXTT2=
EXTT3=
EXTT4=
EXTT5=
EXTT6=
EXTT7=
EXTT8=
EXTT9=
EXTT10=
PLAYORDER=
